<?xml version="1.0" standalone="no"?>
<!DOCTYPE svg PUBLIC "-//W3C//DTD SVG 20010904//EN"
 "http://www.w3.org/TR/2001/REC-SVG-20010904/DTD/svg10.dtd">
<svg version="1.0" xmlns="http://www.w3.org/2000/svg"
 width="450.000000pt" height="450.000000pt" viewBox="0 0 450.000000 450.000000"
 preserveAspectRatio="xMidYMid meet">
<metadata>
Created by potrace 1.10, written by Peter Selinger 2001-2011
</metadata>
<g transform="translate(0.000000,450.000000) scale(0.100000,-0.100000)"
fill="#000000" stroke="none">
<path d="M705 4485 c-157 -35 -299 -111 -418 -224 -129 -123 -201 -239 -254
-408 l-28 -88 0 -1515 0 -1515 28 -88 c53 -170 127 -288 256 -409 96 -91 203
-155 331 -200 l95 -33 1505 -3 1506 -2 99 25 c316 80 562 325 647 645 l23 85
0 1495 0 1495 -23 85 c-89 335 -351 585 -684 654 -69 14 -241 16 -1550 15
-1183 -1 -1485 -4 -1533 -14z m1701 -635 c73 -36 126 -91 163 -169 22 -47 26
-70 26 -146 0 -117 -26 -176 -124 -279 -78 -83 -144 -180 -186 -273 -15 -35
-31 -63 -34 -63 -4 0 -19 29 -35 65 -42 97 -99 180 -183 268 -103 108 -128
164 -128 282 0 77 4 98 27 147 44 95 138 172 242 199 61 16 165 2 232 -31z
m1174 -200 c19 -19 20 -33 20 -510 l0 -490 103 0 c140 0 140 0 138 -160 l-1
-120 33 -47 c68 -97 165 -360 202 -543 9 -47 18 -92 21 -100 3 -11 -7 -20 -31
-29 -57 -20 -75 -53 -75 -133 0 -102 26 -141 105 -158 l30 -6 3 -179 c3 -195
-3 -236 -44 -285 -33 -39 -54 -50 -116 -59 l-50 -8 6 52 c24 203 -127 397
-338 436 -54 10 -79 9 -158 -7 l-28 -6 0 206 0 206 205 0 c235 0 264 6 292 64
16 34 15 39 -7 123 -12 48 -40 143 -62 210 -42 132 -63 161 -136 184 -55 17
-1414 36 -1592 21 -224 -17 -261 -39 -572 -342 -178 -173 -198 -195 -198 -225
0 -18 7 -38 15 -45 15 -13 487 -11 1623 6 l412 7 0 -211 0 -211 -47 -23 c-70
-35 -139 -107 -176 -185 -30 -63 -32 -75 -32 -175 l0 -108 -912 0 c-502 0
-913 1 -913 3 0 2 5 29 11 60 28 154 -70 336 -222 410 -162 80 -343 45 -469
-89 -80 -86 -104 -148 -104 -276 l-1 -98 -26 0 c-43 0 -92 21 -126 53 -55 52
-63 80 -62 224 1 70 4 139 8 152 6 21 8 22 20 7 17 -20 70 -21 99 0 12 8 31
32 41 52 41 81 35 162 -15 201 l-25 19 31 22 c51 36 208 106 381 168 153 55
169 59 205 50 60 -16 107 -3 173 50 69 54 471 417 486 438 7 10 0 23 -25 49
-19 19 -37 35 -41 35 -4 0 -29 -18 -54 -40 -25 -22 -49 -40 -53 -40 -12 0 -4
522 8 534 14 14 179 9 197 -5 10 -9 13 -53 13 -185 0 -96 1 -174 3 -174 1 0
25 9 53 19 80 31 213 41 609 47 324 6 817 -4 1150 -22 110 -6 114 8 9 27 -31
6 -69 20 -84 31 -24 17 -37 19 -116 14 -49 -3 -114 -7 -144 -9 l-55 -2 -3 554
c-2 505 -1 556 14 573 15 16 35 18 196 18 165 0 179 -1 198 -20z m-2110 -180
c20 -20 20 -33 20 -640 l0 -620 -226 -197 c-125 -109 -230 -199 -235 -201 -5
-2 -9 356 -9 819 0 751 1 824 17 841 15 16 35 18 215 18 185 0 199 -1 218 -20z
m1330 -300 c19 -19 20 -33 20 -325 l0 -305 -79 0 -79 0 -33 88 -34 87 -3 221
c-4 266 -9 254 109 254 66 0 82 -3 99 -20z m314 -226 c14 -13 16 -47 16 -215
l0 -199 -67 0 c-38 0 -92 3 -120 6 l-53 7 0 196 c0 140 3 200 12 209 19 19
193 16 212 -4z m-577 -179 c14 -10 32 -48 53 -116 17 -56 30 -103 28 -104 -7
-7 -686 -8 -697 -1 -6 4 -11 19 -11 34 0 48 39 176 57 189 27 20 541 18 570
-2z m-1609 -127 c9 -9 12 -117 12 -425 0 -395 -1 -413 -18 -413 -11 0 -68 -16
-128 -35 -60 -19 -112 -35 -116 -35 -5 0 -8 199 -8 442 0 397 2 443 17 460 14
15 32 18 123 18 69 0 110 -4 118 -12z m852 -758 c24 -24 26 -77 3 -102 -13
-15 -31 -18 -97 -18 -45 0 -86 4 -93 8 -20 13 -33 60 -23 86 13 36 37 45 118
46 59 0 76 -4 92 -20z m-1326 -441 c23 -67 -24 -169 -78 -169 -60 0 -61 124
-1 183 25 26 67 18 79 -14z m534 -419 c96 -59 96 -201 0 -260 -95 -58 -223 17
-223 130 0 113 128 188 223 130z m2610 0 c126 -77 74 -280 -72 -280 -110 0
-183 112 -138 213 35 78 137 111 210 67z"/>
<path d="M2190 3667 c-40 -20 -70 -74 -70 -125 0 -38 5 -50 39 -83 34 -34 44
-39 86 -39 61 0 100 24 127 78 18 38 19 49 9 82 -17 56 -71 100 -124 100 -23
0 -53 -6 -67 -13z"/>
<path d="M3282 3492 c-9 -6 -12 -25 -10 -53 l3 -44 110 0 110 0 0 50 0 50
-100 3 c-55 1 -106 -2 -113 -6z"/>
<path d="M3282 3251 c-9 -5 -12 -24 -10 -52 l3 -44 110 0 110 0 3 44 c2 28 -1
47 -10 52 -7 5 -53 9 -103 9 -49 0 -96 -4 -103 -9z"/>
<path d="M3275 2997 c-10 -16 -13 -35 -9 -56 l7 -32 111 3 111 3 3 40 c5 56
-13 65 -120 65 -81 0 -89 -2 -103 -23z"/>
<path d="M3286 2772 c-14 -3 -16 -13 -14 -50 l3 -47 110 0 110 0 3 43 c2 30
-1 44 -12 48 -17 6 -173 11 -200 6z"/>
<path d="M1490 1270 c0 -260 4 -400 10 -400 7 0 10 140 10 400 0 260 -3 400
-10 400 -6 0 -10 -140 -10 -400z"/>
<path d="M2440 1270 c0 -260 4 -400 10 -400 7 0 10 140 10 400 0 260 -3 400
-10 400 -6 0 -10 -140 -10 -400z"/>
<path d="M2144 1526 c-3 -8 -4 -23 -2 -33 3 -16 16 -18 99 -21 104 -3 127 7
114 48 -6 18 -14 20 -106 20 -78 0 -101 -3 -105 -14z"/>
<path d="M3084 1526 c-3 -8 -4 -23 -2 -33 3 -16 16 -18 99 -21 104 -3 127 7
114 48 -6 18 -14 20 -106 20 -78 0 -101 -3 -105 -14z"/>
<path d="M1127 3353 c-12 -11 -8 -68 5 -81 8 -8 50 -12 125 -12 110 0 114 1
124 24 7 14 9 36 5 50 l-6 26 -124 0 c-67 0 -126 -3 -129 -7z"/>
<path d="M1132 3158 c-15 -15 -15 -61 0 -76 8 -8 50 -12 125 -12 111 0 114 0
125 25 8 19 8 31 0 50 -11 25 -14 25 -125 25 -75 0 -117 -4 -125 -12z"/>
<path d="M1127 2963 c-11 -10 -8 -71 4 -78 6 -4 62 -7 125 -8 122 -1 134 3
134 49 0 38 -18 44 -140 44 -64 0 -120 -3 -123 -7z"/>
<path d="M1127 2764 c-12 -13 -7 -71 7 -83 9 -8 52 -11 127 -9 l114 3 9 28
c19 54 3 62 -131 65 -65 1 -122 -1 -126 -4z"/>
<path d="M1139 2498 c-22 -8 -27 -66 -7 -86 8 -8 49 -12 118 -12 95 0 109 2
125 20 15 16 17 26 9 48 -9 27 -11 27 -117 32 -60 3 -117 2 -128 -2z"/>
<path d="M2092 2653 c3 -55 5 -58 30 -61 33 -4 50 24 46 75 -5 60 -28 54 -28
-7 0 -67 -24 -64 -28 3 -2 26 -8 47 -13 47 -6 0 -9 -24 -7 -57z"/>
<path d="M2190 2650 l0 -61 33 3 c32 3 32 3 32 58 0 55 0 55 -32 58 l-33 3 0
-61z m40 24 c0 -8 -5 -12 -10 -9 -6 4 -8 11 -5 16 9 14 15 11 15 -7z m2 -56
c-15 -15 -24 -6 -16 16 5 12 10 14 17 7 8 -8 8 -14 -1 -23z"/>
<path d="M2280 2650 c0 -60 0 -60 29 -60 17 0 33 5 36 10 3 6 -3 10 -13 10
-29 0 -35 27 -9 34 22 6 22 7 -3 20 l-25 14 28 11 c37 14 34 21 -8 21 l-35 0
0 -60z"/>
<path d="M2360 2651 c0 -62 14 -82 26 -36 7 29 29 28 29 0 0 -10 6 -20 12 -22
9 -3 12 12 10 54 l-2 58 -37 3 -38 3 0 -60z m50 24 c0 -8 -4 -15 -10 -15 -5 0
-10 7 -10 15 0 8 5 15 10 15 6 0 10 -7 10 -15z"/>
</g>
</svg>
